<?xml version="1.0" encoding="utf-8"?>
<!-- Generator: Adobe Illustrator 22.0.1, SVG Export Plug-In . SVG Version: 6.00 Build 0)  -->
<svg version="1.1" id="Livello_1" xmlns="http://www.w3.org/2000/svg" xmlns:xlink="http://www.w3.org/1999/xlink" x="0px" y="0px"
	 viewBox="0 0 572 107.9" style="enable-background:new 0 0 572 107.9;" xml:space="preserve">
<g>
	<g>
		<path d="M45.9,76.3V12H-0.4l0-11.5h114.5l0,11.5H67.7v64.3H45.9z"/>
		<path d="M137.8,76.6l0-76h98.1l0,11.9h-77.3V34l69.3-0.1v9.3l-69.3,0.1v23.1l77.2,0v10.1L137.8,76.6z"/>
		<path d="M265.5,76.6l0-75.9h30.3l41.2,48.1c3.3,5.1,6.3,7.5,7.8,10c1.7-2.8,4.6-5.1,8.6-10.7l38.6-47.4H423l0.7,75.9l-20.4,0
			l-0.1-62.6L349,76.4h-9.8l-53.5-59l-0.1,59.2L265.5,76.6z"/>
		<path d="M497,76.6l0.1-30.7L440.6,0.6h23l27.9,20.6c5.4,4.4,10.5,8.7,15.2,13.1c4.5-4,9.9-8.6,16.3-13.7l25.5-20l23.4,0L516.6,45
			l-0.1,31.6L497,76.6z"/>
	</g>
</g>
<rect x="155.5" y="64.7" width="80.3" height="11.9"/>
<rect x="0" y="95.4" width="572.2" height="12.6"/>
</svg>
